<svg xmlns="http://www.w3.org/2000/svg" version="1.0" width="450.000000pt" height="109.000000pt" viewBox="0 0 450.000000 109.000000" preserveAspectRatio="xMidYMid meet">

<g transform="translate(0.000000,109.000000) scale(0.100000,-0.100000)" fill="#000000" stroke="none">
<path d="M286 919 c-15 -11 -37 -40 -49 -62 -21 -40 -22 -53 -22 -277 0 -233 0 -236 26 -291 32 -68 87 -124 148 -153 38 -17 65 -21 151 -21 90 0 111 3 147 23 66 35 110 79 140 140 l28 57 0 245 c0 243 0 245 -25 288 -44 77 -114 94 -174 42 -19 -17 -40 -47 -46 -65 -12 -35 -12 -35 -73 -35 l-62 0 -19 46 c-32 78 -113 108 -170 63z m472 -62 c36 -38 42 -80 42 -283 0 -207 -7 -247 -56 -311 -85 -111 -287 -125 -389 -26 -38 37 -74 103 -75 136 0 14 10 17 66 17 78 0 113 17 143 70 18 33 21 54 21 164 l0 126 68 0 69 0 12 43 c13 44 46 87 66 87 6 0 21 -11 33 -23z" fill="#3b3b3b"/>
<path d="M700 801 c-16 -32 -12 -41 20 -41 30 0 37 11 24 44 -8 22 -31 20 -44 -3z" fill="#3b3b3b"/>
<path d="M636 564 c-24 -23 -20 -53 9 -66 19 -8 28 -8 40 2 21 18 19 57 -4 70 -25 13 -27 13 -45 -6z" fill="#3b3b3b"/>
<path d="M488 359 c-41 -23 -6 -89 47 -89 29 0 65 28 65 49 0 41 -69 66 -112 40z" fill="#3b3b3b"/>
<path d="M1908 786 c-87 -32 -140 -94 -159 -184 -30 -148 24 -282 136 -333 49 -22 161 -25 209 -5 52 22 102 72 126 127 19 44 21 66 18 149 -3 87 -6 101 -33 146 -44 70 -106 106 -192 110 -43 3 -82 -1 -105 -10z m158 -105 c43 -26 67 -81 67 -157 0 -140 -99 -221 -203 -166 -92 50 -107 227 -25 309 28 28 40 33 82 33 29 0 60 -7 79 -19z" fill="#3b3b3b"/>
<path d="M2500 791 c-104 -32 -165 -114 -177 -235 -17 -182 84 -306 249 -306 152 0 238 88 238 242 l0 48 -110 0 -110 0 0 -40 0 -40 55 0 c51 0 55 -2 55 -24 0 -57 -81 -106 -152 -92 -115 21 -158 219 -69 318 51 57 174 47 203 -17 10 -22 18 -25 65 -25 44 0 53 3 53 18 0 24 -40 87 -72 111 -56 44 -159 63 -228 42z" fill="#3b3b3b"/>
<path d="M1200 519 l0 -271 133 4 c120 3 138 6 188 31 93 45 129 114 129 247 0 121 -44 196 -140 239 -38 17 -66 21 -177 21 l-133 0 0 -271z m266 162 c54 -25 78 -74 77 -161 0 -121 -49 -170 -165 -170 l-68 0 0 175 0 175 58 0 c34 0 74 -8 98 -19z" fill="#3b3b3b"/>
<path d="M3236 781 c-4 -5 -46 -127 -96 -270 l-89 -261 59 0 58D 0 22 65 22 65 98 0 98 0 22 -65 22 -65 60 0 c33 0 58 4 56 8 -1 5 -43 126 -93 270 l-90 262 -72 0 c-39 0 -74 -4 -77 -9z m112 -209 c18 -54 32 -101 32 -105 0 -4 -32 -7 -71 -7 -53 0 -70 3 -67 13 3 6 18 54 33 105 15 50 31 92 34 92 4 0 21 -44 39 -98z" fill="#3b3b3b"/>
<path d="M3640 521 l0 -271 55 0 55 0 0 90 0 90 78 0 c93 0 154 26 189 79 33 48 33 154 1 201 -48 69 -63 75 -229 78 l-149 3 0 -270z m265 154 c19 -18 25 -35 25 -65 0 -65 -32 -90 -115 -90 l-65 0 0 90 0 90 65 0 c57 0 69 -3 90 -25z" fill="#3b3b3b"/>
<path d="M4130 520 l0 -270 55 0 55 0 0 270 0 270 -55 0 -55 0 0 -270z" fill="#000000"/>
</g>
</svg>